<?xml version="1.0" encoding="utf-8"?>
<!-- Generator: Adobe Illustrator 25.4.1, SVG Export Plug-In . SVG Version: 6.00 Build 0)  -->
<svg version="1.1" id="Capa_1" xmlns="http://www.w3.org/2000/svg" xmlns:xlink="http://www.w3.org/1999/xlink" x="0px" y="0px"
	 viewBox="0 0 121.3 17" style="enable-background:new 0 0 121.3 17;" xml:space="preserve">
<style type="text/css">
	.st0{fill:#020203;}
</style>
<g>
	<path class="st0" d="M59.8,12.5c-2.2-1.1-3.8-3.4-4-4.7c-0.1-1.4,0.8-2.3,2-2.3c1.3,0,2,1,2,1s0.7-1,2-1c1.2,0,2.1,1,2,2.3
		C63.6,9.1,62,11.4,59.8,12.5z"/>
	<path class="st0" d="M50.5,9c0.5-0.9,1.4-1.6,1.9-1.6c0.6,0,0.9,0.3,0.9,0.8c0,0.5-0.4,0.8-0.4,0.8s0.4,0.3,0.4,0.8
		c0,0.5-0.4,0.9-0.9,0.8C51.9,10.6,51,9.9,50.5,9z"/>
	<path class="st0" d="M43.3,9c0.3-0.5,0.8-0.9,1-0.9c0.3,0,0.5,0.2,0.5,0.4c0,0.3-0.2,0.4-0.2,0.4s0.2,0.1,0.2,0.4
		c0,0.3-0.2,0.5-0.5,0.4C44.1,9.9,43.5,9.5,43.3,9z"/>
	<g>
		<path class="st0" d="M6.3,9C6.2,9.4,5.8,9.6,5.6,9.6c-0.2,0-0.4-0.1-0.4-0.3C5.3,9.1,5.4,9,5.4,9S5.3,8.9,5.3,8.7
			c0-0.2,0.1-0.3,0.4-0.3C5.8,8.4,6.2,8.7,6.3,9z"/>
		<path class="st0" d="M6.3,9l42.5-0.3c0.2,0,0.4,0.2,0.4,0.4c0,0.2-0.2,0.4-0.4,0.4c0,0,0,0,0,0L6.3,9.1C6.2,9.1,6.2,9.1,6.3,9
			C6.2,9,6.2,9,6.3,9z"/>
	</g>
	<path class="st0" d="M69,9c-0.5-0.9-1.4-1.6-1.9-1.6c-0.6,0-0.9,0.3-0.9,0.8c0,0.5,0.4,0.8,0.4,0.8s-0.4,0.3-0.4,0.8
		c0,0.5,0.4,0.9,0.9,0.8C67.7,10.6,68.6,9.9,69,9z"/>
	<path class="st0" d="M76.3,9c-0.3-0.5-0.8-0.9-1-0.9c-0.3,0-0.5,0.2-0.5,0.4c0,0.3,0.2,0.4,0.2,0.4s-0.2,0.1-0.2,0.4
		c0,0.3,0.2,0.5,0.5,0.4C75.5,9.9,76,9.5,76.3,9z"/>
	<g>
		<path class="st0" d="M115.7,9c0.2,0.3,0.5,0.6,0.7,0.6c0.2,0,0.4-0.1,0.4-0.3c0-0.2-0.2-0.3-0.2-0.3s0.2-0.1,0.2-0.3
			c0-0.2-0.1-0.3-0.4-0.3C116.2,8.4,115.8,8.7,115.7,9z"/>
		<path class="st0" d="M115.7,9.1L70.8,9.4c-0.2,0-0.4-0.2-0.4-0.4c0-0.2,0.2-0.4,0.4-0.4c0,0,0,0,0,0L115.7,9
			C115.8,9,115.8,9,115.7,9.1C115.8,9.1,115.8,9.1,115.7,9.1z"/>
	</g>
</g>
</svg>
